<?xml version="1.0" encoding="UTF-8" standalone="no"?>
<svg
   xmlns:dc="http://purl.org/dc/elements/1.1/"
   xmlns:cc="http://creativecommons.org/ns#"
   xmlns:rdf="http://www.w3.org/1999/02/22-rdf-syntax-ns#"
   xmlns:svg="http://www.w3.org/2000/svg"
   xmlns="http://www.w3.org/2000/svg"
   viewBox="0 0 2560 1440"
   height="1440"
   width="2560"
   xml:space="preserve"
   id="svg2"
   version="1.1"><metadata
     id="metadata8"><rdf:RDF><cc:Work
         rdf:about=""><dc:format>image/svg+xml</dc:format><dc:type
           rdf:resource="http://purl.org/dc/dcmitype/StillImage" /></cc:Work></rdf:RDF></metadata><defs
     id="defs6"><clipPath
       id="clipPath18"
       clipPathUnits="userSpaceOnUse"><path
         id="path16"
         d="M 0,1080 H 1920 V 0 H 0 Z" /></clipPath></defs><g
     transform="matrix(1.3333333,0,0,-1.3333333,0,1440)"
     id="g10"><g
       id="g12"><g
         clip-path="url(#clipPath18)"
         id="g14"><g
           transform="translate(559.8525,518.4775)"
           id="g20"><path
             id="path22"
             style="fill:#0d448c;fill-opacity:1;fill-rule:nonzero;stroke:none"
             d="m 0,0 c -18.877,0 -34.052,2.413 -45.526,7.249 v 21.743 c 6.49,-2.417 13.478,-4.382 20.952,-5.889 7.474,-1.51 14.908,-2.266 22.309,-2.266 11.624,0 20.346,1.36 26.16,4.078 5.812,2.717 8.721,8.153 8.721,16.307 0,4.983 -1.21,8.982 -3.625,12.004 -2.417,3.02 -6.421,5.624 -12.003,7.816 -5.589,2.186 -13.291,4.49 -23.104,6.907 -15.705,4.077 -26.725,9.248 -33.069,15.513 -6.341,6.265 -9.513,14.911 -9.513,25.936 0,12.831 4.682,22.877 14.045,30.122 9.36,7.248 23.327,10.873 41.902,10.873 8.452,0 16.42,-0.605 23.895,-1.812 7.473,-1.21 13.323,-2.568 17.554,-4.078 v -21.744 c -11.478,4.379 -24.161,6.571 -38.054,6.571 -10.869,0 -19.33,-1.439 -25.367,-4.304 -6.039,-2.872 -9.059,-8.081 -9.059,-15.628 0,-4.383 1.055,-7.929 3.17,-10.646 2.114,-2.717 5.777,-5.061 10.986,-7.022 C -4.417,89.766 2.792,87.577 12.003,85.162 23.932,82.14 33.181,78.555 39.752,74.405 46.319,70.249 50.923,65.417 53.567,59.91 56.206,54.394 57.53,48.167 57.53,41.222 57.53,28.385 52.775,18.306 43.259,10.986 33.748,3.66 19.328,0 0,0" /></g><g
           transform="translate(676.9502,520.7432)"
           id="g24"><path
             id="path26"
             style="fill:#0d448c;fill-opacity:1;fill-rule:nonzero;stroke:none"
             d="m 0,0 v 126.61 h -46.659 v 19.252 H 71.12 V 126.61 H 24.689 L 24.689,0 Z" /></g><g
           transform="translate(794.9561,577.3657)"
           id="g28"><path
             id="path30"
             style="fill:#0d448c;fill-opacity:1;fill-rule:nonzero;stroke:none"
             d="M 0,0 H 50.733 L 25.367,66.816 Z M -43.939,-56.623 11.776,89.24 H 39.408 L 94.673,-56.623 H 69.306 L 54.811,-19.025 H -3.852 l -14.495,-37.598 z" /></g><g
           transform="translate(939.2329,520.7432)"
           id="g32"><path
             id="path34"
             style="fill:#0d448c;fill-opacity:1;fill-rule:nonzero;stroke:none"
             d="m 0,0 v 126.61 h -46.658 v 19.252 H 71.121 V 126.61 H 24.689 L 24.689,0 Z" /></g><g
           transform="translate(1036.8516,520.7432)"
           id="g36"><path
             id="path38"
             style="fill:#0d448c;fill-opacity:1;fill-rule:nonzero;stroke:none"
             d="M 0,0 V 145.862 H 24.687 V 82.443 h 70.215 v 63.419 h 24.687 V 0 H 94.902 V 63.418 H 24.687 L 24.687,0 Z" /></g><g
           transform="translate(1191.7734,520.7432)"
           id="g40"><path
             id="path42"
             style="fill:#0d448c;fill-opacity:1;fill-rule:nonzero;stroke:none"
             d="M 0,0 V 145.862 H 101.696 V 126.61 H 24.687 V 82.443 H 93.314 V 63.418 H 24.687 V 19.024 h 77.009 V 0 Z" /></g><g
           transform="translate(1347.8232,592.3159)"
           id="g44"><path
             id="path46"
             style="fill:#0d448c;fill-opacity:1;fill-rule:nonzero;stroke:none"
             d="m 0,0 h 35.787 c 8.909,0 15.929,2.186 21.065,6.567 5.132,4.377 7.7,11.399 7.7,21.064 0,18.268 -8.832,27.407 -26.5,27.407 H 0 Z M -24.687,-71.573 V 74.29 h 67.043 c 16.306,0 28.197,-4.192 35.673,-12.571 C 85.503,53.338 89.24,41.975 89.24,27.631 89.24,17.361 86.671,8.606 81.539,1.357 76.404,-5.889 69.004,-10.951 59.342,-13.818 c 2.72,-1.962 4.83,-4.077 6.342,-6.342 1.509,-2.264 3.019,-5.286 4.531,-9.058 L 88.561,-71.573 H 63.193 l -17.892,40.77 c -1.664,3.922 -3.664,6.715 -6.004,8.379 -2.342,1.66 -6.306,2.489 -11.889,2.489 H 0 v -51.638 z" /></g><g
           transform="translate(1529.2422,539.3159)"
           id="g48"><path
             id="path50"
             style="fill:#0d448c;fill-opacity:1;fill-rule:nonzero;stroke:none"
             d="m 0,0 c 15.251,0 26.462,4.189 33.636,12.568 7.169,8.382 10.758,22.158 10.758,41.337 0,20.233 -3.589,34.388 -10.758,42.469 C 26.462,104.449 15.251,108.49 0,108.49 c -15.101,0 -26.236,-4.041 -33.408,-12.116 -7.172,-8.081 -10.758,-22.236 -10.758,-42.469 0,-19.179 3.586,-32.955 10.758,-41.337 C -26.236,4.189 -15.101,0 0,0 m 0,-20.837 c -23.102,0 -40.392,6.077 -51.866,18.232 -11.478,12.152 -17.215,30.989 -17.215,56.51 0,26.574 5.737,45.826 17.215,57.757 11.474,11.926 28.764,17.893 51.866,17.893 23.252,0 40.58,-5.967 51.982,-17.893 C 63.381,99.731 69.083,80.479 69.083,53.905 69.083,28.384 63.381,9.547 51.982,-2.605 40.58,-14.76 23.252,-20.837 0,-20.837" /></g><g
           transform="translate(1668.7656,518.4775)"
           id="g52"><path
             id="path54"
             style="fill:#0d448c;fill-opacity:1;fill-rule:nonzero;stroke:none"
             d="m 0,0 c -18.877,0 -34.052,2.413 -45.526,7.249 v 21.743 c 6.49,-2.417 13.478,-4.382 20.952,-5.889 7.474,-1.51 14.909,-2.266 22.309,-2.266 11.624,0 20.346,1.36 26.16,4.078 5.812,2.717 8.721,8.153 8.721,16.307 0,4.983 -1.21,8.982 -3.625,12.004 -2.417,3.02 -6.421,5.624 -12.003,7.816 -5.589,2.186 -13.291,4.49 -23.104,6.907 -15.705,4.077 -26.725,9.248 -33.069,15.513 -6.341,6.265 -9.513,14.911 -9.513,25.936 0,12.831 4.682,22.877 14.046,30.122 9.359,7.248 23.327,10.873 41.901,10.873 8.452,0 16.421,-0.605 23.895,-1.812 7.473,-1.21 13.323,-2.568 17.554,-4.078 v -21.744 c -11.477,4.379 -24.161,6.571 -38.053,6.571 -10.87,0 -19.331,-1.439 -25.368,-4.304 -6.039,-2.872 -9.058,-8.081 -9.058,-15.628 0,-4.383 1.054,-7.929 3.17,-10.646 2.114,-2.717 5.776,-5.061 10.985,-7.022 5.209,-1.964 12.419,-4.153 21.63,-6.568 C 23.933,82.14 33.181,78.555 39.752,74.405 46.319,70.249 50.924,65.417 53.567,59.91 56.206,54.394 57.53,48.167 57.53,41.222 57.53,28.385 52.775,18.306 43.26,10.986 33.748,3.66 19.328,0 0,0" /></g><g
           transform="translate(907.7729,412.3086)"
           id="g56"><path
             id="path58"
             style="fill:#038c8c;fill-opacity:1;fill-rule:nonzero;stroke:none"
             d="M 0,0 16.041,75.96 H 31.965 L 25.242,44.112 H 58.385 L 65.11,75.96 H 81.032 L 64.992,0 H 49.067 l 6.724,31.846 H 22.646 L 15.924,0 Z" /></g><g
           transform="translate(993.4043,412.3086)"
           id="g60"><path
             id="path62"
             style="fill:#038c8c;fill-opacity:1;fill-rule:nonzero;stroke:none"
             d="M 0,0 16.041,75.96 H 70.534 L 67.94,63.575 H 29.369 L 25.242,44.112 H 59.448 L 56.853,31.846 H 22.646 L 18.519,12.266 H 57.088 L 54.493,0 Z" /></g><g
           transform="translate(1096.8447,442.8584)"
           id="g64"><path
             id="path66"
             style="fill:#038c8c;fill-opacity:1;fill-rule:nonzero;stroke:none"
             d="m 0,0 h 23.235 l -5.19,30.547 z M -33.145,-30.549 11.912,45.409 H 29.369 L 42.226,-30.549 H 26.302 l -3.418,18.28 H -5.073 l -10.851,-18.28 z" /></g><g
           transform="translate(1157.3545,412.3086)"
           id="g68"><path
             id="path70"
             style="fill:#038c8c;fill-opacity:1;fill-rule:nonzero;stroke:none"
             d="M 0,0 16.04,75.96 H 31.964 L 18.518,12.266 H 55.909 L 53.313,0 Z" /></g><g
           transform="translate(1227.5342,412.3086)"
           id="g72"><path
             id="path74"
             style="fill:#038c8c;fill-opacity:1;fill-rule:nonzero;stroke:none"
             d="M 0,0 13.447,63.694 H -9.907 L -7.313,75.96 H 55.203 L 52.606,63.694 H 29.371 L 15.925,0 Z" /></g><g
           transform="translate(1282.498,412.3086)"
           id="g76"><path
             id="path78"
             style="fill:#038c8c;fill-opacity:1;fill-rule:nonzero;stroke:none"
             d="M 0,0 16.041,75.96 H 31.965 L 25.241,44.112 H 58.385 L 65.11,75.96 H 81.032 L 64.991,0 H 49.067 L 55.79,31.846 H 22.646 L 15.924,0 Z" /></g><g
           transform="translate(1437.7168,411.1289)"
           id="g80"><path
             id="path82"
             style="fill:#038c8c;fill-opacity:1;fill-rule:nonzero;stroke:none"
             d="m 0,0 c -7.864,0 -14.408,1.552 -19.638,4.659 -5.23,3.106 -8.887,7.549 -10.969,13.328 -2.085,5.779 -2.263,12.602 -0.532,20.464 2.673,12.581 7.865,22.372 15.57,29.37 7.705,6.999 18.441,10.498 32.202,10.498 4.559,0 8.59,-0.336 12.088,-1.003 3.499,-0.667 6.744,-1.59 9.732,-2.771 L 35.504,60.627 c -6.133,2.753 -13.015,4.129 -20.642,4.129 -8.649,0 -15.314,-2.164 -19.992,-6.489 -4.68,-4.326 -7.96,-10.93 -9.849,-19.816 -1.81,-8.336 -1.376,-14.588 1.297,-18.754 2.673,-4.169 8.65,-6.252 17.93,-6.252 3.695,0 7.409,0.333 11.147,1.005 3.733,0.665 7.411,1.668 11.027,3.007 L 23.474,3.421 C 20.014,2.396 16.377,1.573 12.563,0.943 8.746,0.315 4.561,0 0,0" /></g><g
           transform="translate(1506.1299,442.8584)"
           id="g84"><path
             id="path86"
             style="fill:#038c8c;fill-opacity:1;fill-rule:nonzero;stroke:none"
             d="m 0,0 h 23.235 l -5.19,30.547 z M -33.146,-30.549 11.912,45.409 H 29.368 L 42.225,-30.549 H 26.301 l -3.418,18.28 H -5.074 l -10.85,-18.28 z" /></g><g
           transform="translate(1590.6982,450.6416)"
           id="g88"><path
             id="path90"
             style="fill:#038c8c;fill-opacity:1;fill-rule:nonzero;stroke:none"
             d="m 0,0 h 16.396 c 4.166,0 7.627,0.924 10.38,2.771 2.751,1.848 4.557,4.974 5.424,9.378 0.946,4.247 0.768,7.354 -0.529,9.318 -1.3,1.965 -4.347,2.949 -9.143,2.949 l -17.338,0 z m -24.062,-38.334 16.041,75.961 h 36.447 c 8.022,0 13.78,-2.301 17.279,-6.9 3.5,-4.601 4.384,-10.792 2.655,-18.578 C 47.336,7.036 45.154,2.597 41.814,-1.178 38.469,-4.953 34.125,-7.589 28.78,-9.08 c 1.02,-1.025 1.787,-2.125 2.3,-3.303 0.509,-1.18 0.962,-2.755 1.358,-4.72 l 4.715,-21.231 H 20.641 l -4.717,20.406 c -0.397,1.729 -0.985,2.949 -1.771,3.656 -0.786,0.709 -2.281,1.063 -4.481,1.063 H -2.83 l -5.308,-25.125 z" /></g><g
           transform="translate(1646.6064,412.3086)"
           id="g92"><path
             id="path94"
             style="fill:#038c8c;fill-opacity:1;fill-rule:nonzero;stroke:none"
             d="M 0,0 16.041,75.96 H 70.534 L 67.94,63.575 H 29.369 L 25.242,44.112 H 59.448 L 56.853,31.846 H 22.646 L 18.519,12.266 H 57.088 L 54.493,0 Z" /></g><g
           transform="translate(409.0669,589.8135)"
           id="g96"><path
             id="path98"
             style="fill:#038c8c;fill-opacity:1;fill-rule:nonzero;stroke:none"
             d="m 0,0 c -19.507,30.661 -53.791,50.992 -92.813,50.992 -60.703,0 -109.906,-49.203 -109.906,-109.907 0,-10.825 1.571,-21.294 4.49,-31.17 -10.854,17.04 -17.134,37.274 -17.134,58.969 0,60.703 49.216,109.904 109.919,109.904 C -55.553,78.788 -13.417,45.551 0,0" /></g><g
           transform="translate(201.9146,494.0811)"
           id="g100"><path
             id="path102"
             style="fill:#038c8c;fill-opacity:1;fill-rule:nonzero;stroke:none"
             d="m 0,0 c 19.507,-30.662 53.791,-50.992 92.813,-50.992 60.703,0 109.906,49.202 109.906,109.904 0,10.827 -1.571,21.296 -4.49,31.172 10.854,-17.04 17.134,-37.274 17.134,-58.969 0,-60.703 -49.216,-109.906 -109.919,-109.906 C 55.553,-78.791 13.417,-45.554 0,0" /></g><g
           transform="translate(379.3213,506.1611)"
           id="g104"><path
             id="path106"
             style="fill:#0d448c;fill-opacity:1;fill-rule:nonzero;stroke:none"
             d="m 0,0 c -5.113,-11.648 -12.677,-21.454 -21.834,-29.078 16.691,39.907 -1.626,85.989 -41.403,103.447 -28.564,12.538 -60.508,6.943 -82.938,-11.772 0.179,0.441 0.367,0.882 0.558,1.319 17.651,40.212 64.558,58.497 104.768,40.846 C -0.638,87.111 17.651,40.21 0,0" /></g><g
           transform="translate(462.0552,434.6934)"
           id="g108"><path
             id="path110"
             style="fill:#0d448c;fill-opacity:1;fill-rule:nonzero;stroke:none"
             d="m 0,0 c 0,-12.366 -10.024,-22.386 -22.389,-22.386 -12.364,0 -22.389,10.02 -22.389,22.386 0,12.364 10.025,22.387 22.389,22.387 C -10.024,22.387 0,12.364 0,0" /></g></g></g></g></svg>
